# Blender v2.93.6 OBJ File: 'house.blend'
# www.blender.org
mtllib ground.mtl
o Ground_Plane
v -43.189468 -0.036038 43.189468
v 43.189468 -0.036038 43.189468
v -43.189468 -0.036038 -43.189468
v 43.189468 -0.036038 -43.189468
v -28.432426 -0.036038 2.018410
v 17.223406 -0.036038 -0.190508
v -10.079659 -0.036038 6.501019
v -10.079659 -0.036038 2.319361
v 3.484030 -0.036038 -0.190508
v 3.484030 -0.036038 6.501019
v -20.126999 -0.036038 2.018410
v 17.223406 -0.036038 -17.536129
v -28.432426 -0.036038 -17.536129
v -15.892123 -0.036038 2.319361
vt 0.300606 0.497795
vt 0.459667 0.497795
vt 0.459667 0.575260
vt 0.000000 1.000000
vt 0.616692 0.575260
vt 1.000000 1.000000
vt 0.616692 0.526852
vt 0.683983 0.526852
vt 0.733009 0.523365
vt 0.829159 0.523369
vt 1.000000 0.000000
vt 0.829159 0.296986
vt 0.300606 0.296986
vt 0.000000 0.000000
vn 0.0000 1.0000 0.0000
usemtl outside
s off
f 6/1/1 9/2/1 10/3/1 2/4/1
f 2/4/1 10/3/1 7/5/1 1/6/1
f 7/5/1 8/7/1 14/8/1 1/6/1
f 11/9/1 5/10/1 1/6/1 14/8/1
f 3/11/1 1/6/1 5/10/1 13/12/1
f 3/11/1 13/12/1 12/13/1 4/14/1
f 4/14/1 12/13/1 6/1/1 2/4/1
o Ground.001_Plane.003
v 3.030420 -0.036038 5.963060
v -9.497741 -0.036038 1.429235
v -27.670813 -0.036038 -16.748402
v -27.670813 -0.036038 1.297745
v 16.700623 -0.036038 -0.765594
v 3.030420 -0.036038 -0.765594
v -20.126999 -0.036038 2.152959
v -9.497741 -0.036038 5.963060
v -15.896132 -0.036038 2.284449
v 16.700623 -0.036038 -16.748402
v -15.892123 -0.036038 2.284449
vt 0.425980 0.829985
vt 0.000000 1.000000
vt 0.406706 1.000000
vt 0.000000 0.000000
vt 0.360205 0.308086
vt 0.360205 0.000000
vt 0.511848 0.308086
vt 0.409670 0.590433
vt 0.511848 0.590433
vt 0.428944 0.734544
vn 0.0000 1.0000 0.0000
usemtl inside
s off
f 21/15/2 17/16/2 18/17/2
f 24/18/2 20/19/2 19/20/2
f 15/21/2 20/19/2 16/22/2 22/23/2
f 17/16/2 21/15/2 25/24/2
f 17/16/2 25/24/2 16/22/2
f 16/22/2 20/19/2 24/18/2 17/16/2
l 23 25
