# Blender v2.93.6 OBJ File: 'house.blend'
# www.blender.org
mtllib house.mtl
o House_Plane.001
v -16.672375 -0.118381 2.874298
v -16.672375 5.810177 2.874298
v -16.672375 -0.118381 0.874298
v -16.672375 5.810177 0.874298
v -15.892123 -0.118381 2.874298
v -15.892123 5.810177 2.874298
v -15.892123 -0.118381 0.874298
v -15.892123 5.810177 0.874298
v -16.672375 5.411365 2.874298
v -16.672375 5.411365 0.874298
v -15.892123 5.411365 0.874298
v -15.892123 5.411365 2.874298
v -20.126999 -0.118381 2.874298
v -20.126999 5.810177 2.874298
v -20.126999 -0.118381 0.874298
v -20.126999 5.810177 0.874298
v -19.346748 -0.118381 2.874298
v -19.346748 5.810177 2.874298
v -19.346748 -0.118381 0.874298
v -19.346748 5.810177 0.874298
v -20.126999 5.411365 2.874298
v -20.126999 5.411365 0.874298
v -19.346748 5.411365 0.874298
v -19.346748 5.411365 2.874298
v -9.497741 5.411365 2.319361
v -9.497741 5.411365 1.429235
v -15.896132 5.411365 1.429235
v -15.896132 5.411365 2.319361
v -9.497741 -0.118381 1.429235
v -9.497741 -0.118381 2.319361
v -15.896132 -0.118381 1.429235
v -15.896132 -0.118381 2.319361
v -10.079659 5.411365 2.319361
v -10.079659 -0.118381 2.319361
v -10.079659 -0.118381 6.501019
v -9.497741 -0.118381 6.501019
v -9.497741 5.411365 6.501019
v -10.079659 5.411365 6.501019
v -9.497741 5.411365 5.963060
v -9.497741 -0.118381 5.963060
v -10.079659 -0.118381 5.963060
v -10.079659 5.411365 5.963060
v 3.484030 5.411365 6.501019
v 3.484030 -0.118381 6.501019
v 3.484030 5.411365 5.963060
v 3.484030 -0.118381 5.963060
v -10.017917 5.411365 1.429235
v -10.017917 -0.118381 1.429235
v 3.030420 -0.118381 5.963060
v 3.030420 -0.118381 6.501019
v 3.030420 5.411365 6.501019
v 3.030420 5.411365 5.963060
v 3.484030 5.411365 -0.765594
v 3.484030 -0.118381 -0.765594
v 3.030420 -0.118381 -0.765594
v 3.030420 5.411365 -0.765594
v 3.030420 -0.118381 -0.190508
v 3.484030 -0.118381 -0.190508
v 3.484030 5.411365 -0.190508
v 3.030420 5.411365 -0.190508
v 17.223406 5.411365 -0.765594
v 17.223406 -0.118381 -0.765594
v 17.223406 5.411365 -0.190508
v 17.223406 -0.118381 -0.190508
v 16.700623 -0.118381 -0.190508
v 16.700623 5.411365 -0.190508
v 16.700623 5.411365 -0.765594
v 16.700623 -0.118381 -0.765594
v 17.223406 5.411365 -17.536129
v 17.223406 -0.118381 -17.536129
v 16.700623 5.411365 -17.536129
v 16.700623 -0.118381 -17.536129
v 17.223406 -0.118381 -16.748402
v 16.700623 -0.118381 -16.748402
v 16.700623 5.411365 -16.748402
v 17.223406 5.411365 -16.748402
v -28.432426 5.411365 -17.536129
v -28.432426 -0.118381 -17.536129
v -28.432426 -0.118381 -16.748402
v -28.432426 5.411365 -16.748402
v -27.670813 5.411365 -17.536129
v -27.670813 5.411365 -16.748402
v -27.670813 -0.118381 -16.748402
v -27.670813 -0.118381 -17.536129
v -28.432426 5.411365 2.018410
v -28.432426 -0.118381 2.018410
v -27.670813 5.411365 2.018410
v -27.670813 -0.118381 2.018410
v -28.432426 -0.118381 1.297745
v -28.432426 5.411365 1.297745
v -27.670813 5.411365 1.297745
v -27.670813 -0.118381 1.297745
v -20.019913 5.411365 2.018410
v -20.019913 -0.118381 2.018410
v -20.019913 5.411365 1.297745
v -20.019913 -0.118381 1.297745
v -27.670813 5.411365 -7.501039
v -27.670813 -0.118381 -7.501039
v -27.670813 5.411365 -8.221704
v -27.670813 -0.118381 -8.221704
v -17.853994 5.411365 -7.501039
v -17.853994 -0.118381 -7.501039
v -17.853994 5.411365 -8.221704
v -17.853994 -0.118381 -8.221704
v -18.452427 -0.118381 -8.221704
v -18.452427 -0.118381 -7.501039
v -18.452427 5.411365 -7.501039
v -18.452427 5.411365 -8.221704
v -17.855850 5.411365 -16.755133
v -17.855848 -0.118381 -16.755133
v -18.448952 -0.118381 -16.755133
v -18.448952 5.411365 -16.755133
v -7.494819 4.117862 6.501019
v 0.781968 4.117862 6.501019
v 0.781970 0.873036 6.501019
v -7.494819 0.873036 6.501019
v -7.494819 4.117862 5.963060
v 0.781969 4.117862 5.963060
v 0.781969 0.873036 5.963060
v -7.494819 0.873036 5.963060
v -17.857702 -0.118381 -17.536129
v -17.857704 5.411365 -17.536129
v -18.445477 5.411365 -17.536129
v -18.445475 -0.118381 -17.536129
v -15.896132 5.429271 2.319361
v -10.079659 5.429271 2.319361
v -9.497741 5.429271 6.501019
v -10.079659 5.429271 6.501019
v -10.079659 5.429271 5.963060
v 3.484031 5.429271 6.501019
v 3.484031 5.429271 5.963060
v 3.030420 5.429271 6.501019
v 3.484031 5.429271 -0.190508
v 17.223406 5.429271 -0.765594
v 17.223406 5.429271 -0.190508
v 16.700623 5.429271 -0.190508
v 17.223406 5.429271 -17.536129
v 16.700623 5.429271 -17.536129
v 17.223406 5.429271 -16.748402
v -28.432426 5.429271 -17.536129
v -28.432426 5.429271 -16.748402
v -27.670813 5.429271 -17.536129
v -28.432426 5.429271 2.018410
v -27.670813 5.429271 2.018410
v -28.432426 5.429271 1.297745
v -20.019913 5.429271 2.018410
v -17.857704 5.429271 -17.536129
v -18.445477 5.429271 -17.536129
vt 0.560247 0.961135
vt 0.560247 0.967039
vt 0.520657 0.967039
vt 0.520657 0.961135
vt 0.509106 0.967039
vt 0.509106 0.961135
vt 0.784296 0.845505
vt 0.784296 0.851409
vt 0.754689 0.851409
vt 0.754689 0.845505
vt 0.938097 0.985587
vt 0.938097 0.991491
vt 0.926546 0.991491
vt 0.926546 0.985587
vt 0.494148 0.894207
vt 0.505699 0.894207
vt 0.505699 0.923814
vt 0.494148 0.923814
vt 0.784296 0.862960
vt 0.754689 0.862960
vt 0.938097 0.903726
vt 0.926546 0.903726
vt 0.784296 0.763644
vt 0.754689 0.763644
vt 0.520657 0.879273
vt 0.509106 0.879273
vt 0.494147 0.812346
vt 0.494147 0.894207
vt 0.464540 0.894207
vt 0.464540 0.812346
vt 0.784296 0.757740
vt 0.784296 0.763644
vt 0.754689 0.763644
vt 0.754689 0.757740
vt 0.571798 0.961135
vt 0.571798 0.967039
vt 0.464540 0.894207
vt 0.494147 0.894207
vt 0.494147 0.933798
vt 0.464540 0.933798
vt 0.886955 0.985587
vt 0.886955 0.991491
vt 0.875404 0.991491
vt 0.875404 0.985587
vt 0.245583 0.903066
vt 0.257133 0.903066
vt 0.257133 0.932673
vt 0.245583 0.932673
vt 0.784296 0.902551
vt 0.784296 0.914101
vt 0.754689 0.914101
vt 0.754689 0.902551
vt 0.886955 0.903726
vt 0.875404 0.903726
vt 0.275191 0.821205
vt 0.275191 0.903066
vt 0.245583 0.903066
vt 0.245583 0.821205
vt 0.571798 0.879273
vt 0.560247 0.879273
vt 0.784296 0.675879
vt 0.754689 0.675879
vt 0.355841 0.210110
vt 0.347878 0.210110
vt 0.347878 0.203394
vt 0.355841 0.203394
vt 0.367935 0.912485
vt 0.367935 0.994346
vt 0.354758 0.994346
vt 0.354758 0.912485
vt 0.672827 0.964355
vt 0.590966 0.964355
vt 0.590966 0.878249
vt 0.672827 0.878249
vt 0.507325 0.812346
vt 0.507325 0.894207
vt 0.494147 0.894207
vt 0.494147 0.812346
vt 0.672828 0.868058
vt 0.754689 0.868058
vt 0.754689 0.876673
vt 0.672828 0.876673
vt 0.754689 0.884374
vt 0.672828 0.884374
vt 0.672828 0.876673
vt 0.754689 0.876673
vt 0.347878 0.404188
vt 0.347878 0.395575
vt 0.355841 0.395575
vt 0.355841 0.404188
vt 0.992036 0.985587
vt 0.992036 0.903726
vt 1.000000 0.903726
vt 1.000000 0.985587
vt 0.703718 0.280304
vt 0.703718 0.271690
vt 0.711681 0.271690
vt 0.711681 0.280304
vt 0.649776 0.280304
vt 0.649776 0.271690
vt 0.938096 0.985587
vt 0.938096 0.903726
vt 0.293936 0.404188
vt 0.293936 0.395575
vt 0.300817 0.994346
vt 0.300817 0.912485
vt 0.957264 0.812629
vt 0.875403 0.812629
vt 0.875403 0.804666
vt 0.957264 0.804666
vt 0.754689 0.682594
vt 0.672828 0.682594
vt 0.672828 0.675879
vt 0.754689 0.675879
vt 0.703718 0.465769
vt 0.711681 0.465769
vt 0.711681 0.472485
vt 0.703718 0.472485
vt 0.256781 0.203394
vt 0.256781 0.210110
vt 0.248268 0.210110
vt 0.248268 0.203394
vt 0.754689 0.971394
vt 0.672828 0.971394
vt 0.636600 0.272604
vt 0.636600 0.280304
vt 0.649776 0.185585
vt 0.636600 0.185585
vt 0.687504 0.838407
vt 0.735540 0.838407
vt 0.735540 0.715879
vt 0.687504 0.715879
vt 0.590966 0.675879
vt 0.672828 0.675879
vt 0.672828 0.682594
vt 0.590966 0.682594
vt 0.612621 0.465769
vt 0.612621 0.472485
vt 0.604109 0.472485
vt 0.604109 0.465769
vt 0.957264 0.713570
vt 0.875403 0.713570
vt 0.875403 0.705056
vt 0.957264 0.705056
vt 0.509105 0.871534
vt 0.590966 0.871534
vt 0.590966 0.879273
vt 0.509105 0.879273
vt 0.957264 0.903726
vt 0.875403 0.903726
vt 0.957264 0.804666
vt 0.875403 0.804666
vt 0.081861 0.675879
vt 0.163722 0.675879
vt 0.163722 0.684392
vt 0.081861 0.684392
vt 0.604109 0.668140
vt 0.612621 0.668140
vt 0.612621 0.675879
vt 0.604109 0.675879
vt 0.248268 0.000000
vt 0.248268 0.007740
vt 0.011662 0.007740
vt 0.011662 0.000000
vt 0.256781 0.007740
vt 0.256781 0.000000
vt 0.672828 0.878249
vt 0.590966 0.878249
vt 0.509105 0.675879
vt 0.590966 0.675879
vt 0.793542 0.007740
vt 0.711681 0.007740
vt 0.711681 0.000000
vt 0.793542 0.000000
vt 0.367502 0.668140
vt 0.367502 0.675879
vt 0.355841 0.675879
vt 0.355841 0.668140
vt 0.367502 0.011274
vt 0.355841 0.011274
vt 0.355841 0.000000
vt 0.367502 0.000000
vt 0.081861 0.920998
vt 0.163722 0.920998
vt 0.163722 0.932660
vt 0.081861 0.932660
vt 0.875403 0.668526
vt 0.793542 0.668526
vt 0.793542 0.656864
vt 0.875403 0.656864
vt 0.382679 0.912485
vt 0.300817 0.912485
vt 0.300817 0.675879
vt 0.382679 0.675879
vt 0.000000 0.007740
vt 0.000000 0.000000
vt 0.793542 0.935677
vt 0.875403 0.935677
vt 0.875403 0.946344
vt 0.793542 0.946344
vt 0.000000 0.664604
vt 0.011662 0.664604
vt 0.011662 0.675879
vt 0.000000 0.675879
vt 0.711681 0.664604
vt 0.793542 0.664604
vt 0.793542 0.675879
vt 0.711681 0.675879
vt 0.000000 0.528034
vt 0.011662 0.528034
vt 0.875403 0.136570
vt 0.793542 0.136570
vt 0.793542 0.000000
vt 0.875403 0.000000
vt 0.367502 0.147844
vt 0.355841 0.147844
vt 0.957264 0.478531
vt 0.875403 0.478531
vt 0.875403 0.467257
vt 0.957264 0.467257
vt 0.289480 0.664604
vt 0.278812 0.664604
vt 0.278812 0.551342
vt 0.289480 0.551342
vt 0.278812 0.675879
vt 0.289480 0.675879
vt 0.634653 0.011274
vt 0.634653 0.000000
vt 0.645321 0.000000
vt 0.645321 0.011274
vt 0.081861 0.943030
vt 0.000000 0.943030
vt 0.000000 0.675879
vt 0.081861 0.675879
vt 0.285859 0.821205
vt 0.285859 0.903066
vt 0.275191 0.903066
vt 0.275191 0.821205
vt 0.957264 0.591793
vt 0.875403 0.591793
vt 0.957264 0.705055
vt 0.875403 0.705055
vt 0.875403 0.591793
vt 0.957264 0.591793
vt 0.645321 0.124537
vt 0.634653 0.124537
vt 0.163723 0.812346
vt 0.174391 0.812346
vt 0.174391 0.821205
vt 0.163723 0.821205
vt 0.875403 0.321932
vt 0.957264 0.321932
vt 0.957264 0.330791
vt 0.875403 0.330791
vt 0.493729 0.147741
vt 0.493729 0.156601
vt 0.367302 0.156601
vt 0.367302 0.147741
vt 0.504398 0.147741
vt 0.504398 0.156601
vt 0.464540 0.812346
vt 0.464540 0.823014
vt 0.382679 0.823014
vt 0.382679 0.812346
vt 0.493729 0.011274
vt 0.504398 0.011274
vt 0.957264 0.467257
vt 0.875403 0.467257
vt 0.875403 0.330790
vt 0.957264 0.330790
vt 0.875403 0.185465
vt 0.957264 0.185465
vt 0.163723 0.675879
vt 0.174391 0.675879
vt 0.294720 0.821205
vt 0.294720 0.903066
vt 0.285860 0.903066
vt 0.285860 0.821205
vt 0.464540 0.949440
vt 0.382679 0.949440
vt 0.300817 0.812346
vt 0.300817 0.821205
vt 0.245584 0.947632
vt 0.163723 0.947632
vt 0.163723 0.821205
vt 0.245584 0.821205
vt 0.711681 0.528034
vt 0.793542 0.528034
vt 0.957265 0.185464
vt 0.938116 0.152179
vt 0.938116 0.029651
vt 0.957265 0.000000
vt 0.875404 0.000000
vt 0.890080 0.029651
vt 0.890080 0.152179
vt 0.875404 0.185464
vt 0.579761 0.927309
vt 0.579761 0.879273
vt 0.587725 0.879273
vt 0.587725 0.927309
vt 0.784296 0.920934
vt 0.784296 0.798407
vt 0.792260 0.798407
vt 0.792260 0.920934
vt 0.579761 0.879273
vt 0.579761 0.927309
vt 0.571797 0.927309
vt 0.571797 0.879273
vt 0.792260 0.675879
vt 0.792260 0.798407
vt 0.784297 0.798407
vt 0.784297 0.675879
vt 0.793542 0.519333
vt 0.711681 0.519333
vt 0.355841 0.156546
vt 0.367502 0.156546
vt 0.875403 0.656864
vt 0.793542 0.656864
vt 0.793542 0.145271
vt 0.875403 0.145271
vt 0.011662 0.519333
vt 0.000000 0.519333
vt 0.000000 0.000000
vt 0.000000 0.000000
vt 0.000000 0.000000
vt 0.000000 0.000000
vt 0.000000 0.000000
vt 0.000000 0.000000
vt 0.000000 0.000000
vt 0.000000 0.000000
vt 0.000000 0.000000
vt 0.000000 0.000000
vt 0.000000 0.000000
vt 0.000000 0.000000
vt 0.000000 0.000000
vt 0.000000 0.000000
vt 0.000000 0.000000
vt 0.000000 0.000000
vt 0.000000 0.000000
vt 0.000000 0.000000
vt 0.000000 0.000000
vt 0.000000 0.000000
vt 0.000000 0.000000
vt 0.000000 0.000000
vt 0.000000 0.000000
vt 0.000000 0.000000
vt 0.000000 0.000000
vt 0.000000 0.000000
vt 0.000000 0.000000
vt 0.000000 0.000000
vn 0.0000 0.0000 -1.0000
vn 1.0000 0.0000 0.0000
vn 0.0000 0.0000 1.0000
vn 0.0000 -1.0000 0.0000
vn 0.0000 1.0000 0.0000
vn -1.0000 0.0000 0.0000
vn 0.0007 0.0000 1.0000
vn 1.0000 0.0000 -0.0002
vn -1.0000 0.0000 -0.0004
vn -0.0002 -0.0000 1.0000
usemtl wall
s off
f 23/1/1 20/2/1 4/3/1 10/4/1
f 10/4/1 4/3/1 8/5/1 11/6/1
f 11/7/2 8/8/2 6/9/2 12/10/2
f 12/11/3 6/12/3 2/13/3 9/14/3
f 3/15/4 7/16/4 5/17/4 1/18/4
f 8/8/5 4/19/5 2/20/5 6/9/5
f 5/21/3 12/11/3 9/14/3 1/22/3
f 7/23/2 11/7/2 12/10/2 5/24/2
f 3/25/1 10/4/1 11/6/1 7/26/1
f 1/27/6 9/28/6 10/29/6 3/30/6
f 21/31/6 14/32/6 16/33/6 22/34/6
f 22/35/1 16/36/1 20/2/1 23/1/1
f 24/37/4 23/38/4 10/39/4 9/40/4
f 24/41/3 18/42/3 14/43/3 21/44/3
f 15/45/4 19/46/4 17/47/4 13/48/4
f 20/49/5 16/50/5 14/51/5 18/52/5
f 17/53/3 24/41/3 21/44/3 13/54/3
f 19/55/2 23/56/2 24/57/2 17/58/2
f 15/59/1 22/35/1 23/1/1 19/60/1
f 13/61/6 21/31/6 22/34/6 15/62/6
f 20/49/5 18/52/5 2/20/5 4/19/5
f 18/42/3 24/41/3 9/14/3 2/13/3
f 50/63/4 49/64/4 46/65/4 44/66/4
f 29/67/2 26/68/2 25/69/2 30/70/2
f 34/71/3 33/72/3 28/73/3 32/74/3
f 32/75/6 28/76/6 27/77/6 31/78/6
f 36/79/3 37/80/3 38/81/3 35/82/3
f 48/83/1 47/84/1 26/85/1 29/86/1
f 41/87/4 40/88/4 36/89/4 35/90/4
f 42/91/6 41/92/6 35/93/6 38/94/6
f 39/95/5 42/96/5 38/97/5 37/98/5
f 25/99/5 33/100/5 42/96/5 39/95/5
f 33/101/6 34/102/6 41/92/6 42/91/6
f 34/103/4 30/104/4 40/88/4 41/87/4
f 30/70/2 25/69/2 39/105/2 40/106/2
f 46/107/2 45/108/2 43/109/2 44/110/2
f 51/111/3 50/112/3 44/113/3 43/114/3
f 52/115/5 51/116/5 43/117/5 45/118/5
f 58/119/4 57/120/4 55/121/4 54/122/4
f 31/123/1 27/124/1 47/84/1 48/83/1
f 47/125/5 33/100/5 25/99/5 26/126/5
f 28/127/5 33/100/5 47/125/5 27/128/5
f 36/79/3 116/129/3 113/130/3 37/80/3
f 39/95/5 37/98/5 51/116/5 52/115/5
f 50/112/3 51/111/3 114/131/3 115/132/3
f 36/89/4 40/88/4 49/64/4 50/63/4
f 55/133/1 56/134/1 53/135/1 54/136/1
f 60/137/5 59/138/5 53/139/5 56/140/5
f 57/141/6 60/142/6 56/143/6 55/144/6
f 66/145/3 65/146/3 64/147/3 63/148/3
f 45/108/2 46/107/2 58/149/2 59/150/2
f 49/151/6 52/152/6 60/142/6 57/141/6
f 52/115/5 45/118/5 59/138/5 60/137/5
f 46/65/4 49/64/4 57/120/4 58/119/4
f 63/153/2 64/154/2 62/155/2 61/156/2
f 67/157/5 66/158/5 63/159/5 61/160/5
f 62/161/4 68/162/4 74/163/4 73/164/4
f 65/165/4 68/162/4 62/161/4 64/166/4
f 58/119/4 54/122/4 68/162/4 65/165/4
f 54/136/1 53/135/1 67/167/1 68/168/1
f 53/139/5 59/138/5 66/158/5 67/157/5
f 59/169/3 58/170/3 65/146/3 66/145/3
f 72/171/1 71/172/1 69/173/1 70/174/1
f 75/175/5 76/176/5 69/177/5 71/178/5
f 82/179/5 81/180/5 77/181/5 80/182/5
f 76/183/2 73/184/2 70/185/2 69/186/2
f 79/187/6 80/188/6 77/189/6 78/190/6
f 67/157/5 61/160/5 76/176/5 75/175/5
f 68/191/6 67/192/6 75/193/6 74/194/6
f 61/156/2 62/155/2 73/184/2 76/183/2
f 73/164/4 74/163/4 72/195/4 70/196/4
f 90/197/6 89/198/6 86/199/6 85/200/6
f 84/201/4 83/202/4 79/203/4 78/204/4
f 81/205/1 84/206/1 78/207/1 77/208/1
f 51/111/3 37/80/3 113/130/3 114/131/3
f 124/209/4 111/210/4 83/202/4 84/201/4
f 111/211/7 112/212/7 82/213/7 83/214/7
f 112/215/5 123/216/5 81/180/5 82/179/5
f 88/217/3 87/218/3 85/219/3 86/220/3
f 88/221/4 92/222/4 96/223/4 94/224/4
f 89/225/4 92/222/4 88/221/4 86/226/4
f 91/227/5 90/228/5 85/229/5 87/230/5
f 82/179/5 80/182/5 90/228/5 91/227/5
f 79/203/4 83/202/4 92/222/4 89/225/4
f 83/231/2 82/232/2 91/233/2 92/234/2
f 80/188/6 79/187/6 89/198/6 90/197/6
f 96/235/2 95/236/2 93/237/2 94/238/2
f 87/218/3 88/217/3 94/239/3 93/240/3
f 92/241/1 91/242/1 95/243/1 96/244/1
f 91/227/5 87/230/5 93/245/5 95/246/5
f 106/247/4 105/248/4 104/249/4 102/250/4
f 107/251/3 106/252/3 102/253/3 101/254/3
f 108/255/5 103/256/5 109/257/5 112/258/5
f 108/255/5 107/259/5 101/260/5 103/256/5
f 102/261/2 104/262/2 103/263/2 101/264/2
f 99/265/5 97/266/5 107/259/5 108/255/5
f 100/267/1 99/268/1 108/269/1 105/270/1
f 97/271/3 98/272/3 106/252/3 107/251/3
f 98/273/4 100/274/4 105/248/4 106/247/4
f 111/275/1 112/276/1 109/277/1 110/278/1
f 103/263/8 104/262/8 110/279/8 109/280/8
f 104/249/4 105/248/4 111/281/4 110/282/4
f 105/283/9 108/284/9 112/285/9 111/286/9
f 36/79/3 50/112/3 115/132/3 116/129/3
f 123/287/1 124/288/1 84/206/1 81/205/1
f 52/289/1 118/290/1 117/291/1 39/292/1
f 40/293/1 39/292/1 117/291/1 120/294/1
f 40/293/1 120/294/1 119/295/1 49/296/1
f 49/296/1 119/295/1 118/290/1 52/289/1
f 113/297/2 116/298/2 120/299/2 117/300/2
f 116/301/5 115/302/5 119/303/5 120/304/5
f 115/305/6 114/306/6 118/307/6 119/308/6
f 114/309/4 113/310/4 117/311/4 118/312/4
f 71/172/1 72/171/1 121/313/1 122/314/1
f 75/175/4 67/157/4 53/139/4 109/257/4
f 25/99/4 60/137/4 52/115/4 39/95/4
f 26/126/4 56/140/4 60/137/4 25/99/4
f 109/257/4 53/139/4 56/140/4 103/256/4
f 56/140/4 26/126/4 103/256/4
f 47/125/4 101/260/4 103/256/4 26/126/4
f 47/125/4 27/128/4 101/260/4
f 27/128/4 95/246/4 107/259/4 101/260/4
f 97/266/4 107/259/4 95/246/4 91/227/4
f 75/175/5 71/178/5 122/315/5 109/316/5
f 74/317/10 75/318/10 109/319/10 110/320/10
f 72/195/4 74/163/4 110/321/4 121/322/4
f 122/314/1 121/313/1 124/288/1 123/287/1
f 109/316/5 122/315/5 123/216/5 112/215/5
f 121/322/4 110/321/4 111/210/4 124/209/4
f 126/323/5 129/324/5 128/325/5 127/326/5 132/327/5 130/328/5 131/329/5 133/330/5 136/331/5 135/332/5 134/333/5 139/334/5 137/335/5 138/336/5 147/337/5 148/338/5 142/339/5 140/340/5 141/341/5 145/342/5 143/343/5 144/344/5 146/345/5 125/346/5
f 99/347/4 82/348/4 112/349/4 108/350/4
