# Blender v2.93.6 OBJ File: 'house.blend'
# www.blender.org
mtllib table.mtl
o Cube.002
v -5.292947 0.727342 -7.195125
v -5.292947 0.727343 -10.342963
v -0.804738 0.727342 -10.342963
v -0.804740 0.727342 -7.195124
v -5.292948 0.800743 -7.195125
v -0.804739 0.800743 -7.195125
v -0.804738 0.800743 -10.342963
v -5.292945 0.800744 -10.342964
v -0.816234 0.056206 -10.411019
v -0.816234 1.811796 -10.411020
v -0.754879 1.811796 -10.411020
v -0.754879 0.056206 -10.411019
v -0.754879 0.056206 -9.832290
v -0.754879 1.811796 -9.832289
v -0.816234 1.811796 -9.832290
v -0.816234 0.056206 -9.832290
v -0.816234 0.056206 -10.346996
v -0.754879 0.056206 -10.346996
v -0.816234 1.811796 -10.346996
v -0.754879 1.811796 -10.346996
v -1.361962 1.811796 -10.346996
v -1.361962 0.056206 -10.346996
v -1.361962 1.811796 -10.411020
v -1.361962 0.056206 -10.411019
v -0.758742 0.056205 -7.177306
v -0.758741 1.811796 -7.177306
v -0.758742 1.811796 -7.115952
v -0.758742 0.056205 -7.115952
v -1.337472 0.056205 -7.115952
v -1.337472 1.811796 -7.115952
v -1.337472 1.811796 -7.177306
v -1.337472 0.056205 -7.177306
v -0.822765 0.056205 -7.177306
v -0.822765 0.056205 -7.115952
v -0.822765 1.811796 -7.177306
v -0.822765 1.811796 -7.115952
v -0.822765 1.811796 -7.723034
v -0.822765 0.056205 -7.723034
v -0.758741 1.811796 -7.723034
v -0.758742 0.056205 -7.723034
v -5.296670 0.056205 -7.125021
v -5.296670 1.811797 -7.125021
v -5.358024 1.811797 -7.125021
v -5.358024 0.056205 -7.125021
v -5.358024 0.056205 -7.703752
v -5.358024 1.811797 -7.703751
v -5.296670 1.811797 -7.703751
v -5.296670 0.056205 -7.703752
v -5.296670 0.056205 -7.189044
v -5.358024 0.056205 -7.189044
v -5.296670 1.811797 -7.189044
v -5.358024 1.811797 -7.189044
v -4.750942 1.811797 -7.189044
v -4.750942 0.056205 -7.189044
v -4.750942 1.811797 -7.125021
v -4.750942 0.056205 -7.125021
v -5.358243 0.056206 -10.344641
v -5.358243 1.811797 -10.344641
v -5.358243 1.811797 -10.405994
v -5.358243 0.056206 -10.405994
v -4.779513 0.056206 -10.405994
v -4.779512 1.811797 -10.405994
v -4.779512 1.811797 -10.344641
v -4.779512 0.056206 -10.344639
v -5.294220 0.056206 -10.344641
v -5.294220 0.056206 -10.405994
v -5.294220 1.811797 -10.344641
v -5.294220 1.811797 -10.405994
v -5.294220 1.811797 -9.798912
v -5.294220 0.056206 -9.798911
v -5.358243 1.811797 -9.798912
v -5.358243 0.056206 -9.798911
v -0.755539 1.883365 -9.619058
v -0.755539 1.883364 -7.905910
v -0.755540 1.813275 -7.905910
v -0.755540 1.813275 -9.619058
v -5.373317 1.883366 -7.905912
v -5.373315 1.883366 -9.619060
v -5.373316 1.813277 -9.619059
v -5.373316 1.813276 -7.905911
v -5.380722 1.807775 -10.418454
v -5.380721 1.893340 -10.418455
v -0.748132 1.893339 -10.418453
v -0.748133 1.807774 -10.418455
v -5.380724 1.893340 -7.106515
v -5.380722 1.807775 -7.106514
v -0.748133 1.807774 -7.106514
v -0.748132 1.893339 -7.106514
v -5.380722 1.807775 -7.911115
v -0.748133 1.807774 -7.911114
v -5.380722 1.807775 -9.613853
v -0.748133 1.807774 -9.613853
v -0.748132 1.893339 -7.911115
v -5.380722 1.893340 -7.911117
v -0.748133 1.893339 -9.613853
v -5.380722 1.893340 -9.613854
vt 0.656900 0.990400
vt 0.656900 0.539300
vt 0.013700 0.539300
vt 0.013700 0.990400
vt 0.658200 0.992100
vt 0.010600 0.992100
vt 0.010600 0.537800
vt 0.658200 0.537800
vt 0.528000 0.616600
vt 0.528000 0.634200
vt 0.104300 0.634200
vt 0.104300 0.616600
vt 0.656400 0.691000
vt 0.656400 0.710000
vt 0.004400 0.710000
vt 0.004400 0.691000
vt 0.116100 0.624400
vt 0.116100 0.641000
vt 0.514300 0.641000
vt 0.514300 0.624400
vt 0.656500 0.711600
vt 0.656500 0.692600
vt 0.003400 0.692600
vt 0.003400 0.711600
vt 0.107200 0.825100
vt 0.532200 0.825100
vt 0.532200 0.851500
vt 0.107200 0.851500
vt 0.118200 0.818900
vt 0.514400 0.818900
vt 0.514400 0.794300
vt 0.118200 0.794300
vt 0.023600 0.602600
vt 0.023600 0.572800
vt 0.021600 0.568700
vt 0.021600 0.598800
vt 0.021600 0.840500
vt 0.023600 0.842900
vt 0.483900 0.572800
vt 0.483900 0.602600
vt 0.484700 0.598800
vt 0.484700 0.568700
vt 0.483900 0.842900
vt 0.484700 0.840500
vt 0.108500 0.821500
vt 0.530100 0.821500
vt 0.530100 0.588100
vt 0.108500 0.588100
vt 0.476500 0.606500
vt 0.476500 0.634900
vt 0.039800 0.634900
vt 0.039800 0.606500
vt 0.107200 0.589900
vt 0.532200 0.589900
vt 0.107200 0.825100
vt 0.532200 0.825100
vt 0.532200 0.851500
vt 0.107200 0.851500
vt 0.118200 0.818900
vt 0.514400 0.818900
vt 0.514400 0.794300
vt 0.118200 0.794300
vt 0.023600 0.602600
vt 0.023600 0.572800
vt 0.021600 0.568700
vt 0.021600 0.598800
vt 0.021600 0.840500
vt 0.023600 0.842900
vt 0.483900 0.572800
vt 0.483900 0.602600
vt 0.484700 0.598800
vt 0.484700 0.568700
vt 0.483900 0.842900
vt 0.484700 0.840500
vt 0.108500 0.821500
vt 0.530100 0.821500
vt 0.530100 0.588100
vt 0.108500 0.588100
vt 0.476500 0.606500
vt 0.476500 0.634900
vt 0.039800 0.634900
vt 0.039800 0.606500
vt 0.107200 0.589900
vt 0.532200 0.589900
vt 0.107200 0.825100
vt 0.532200 0.825100
vt 0.532200 0.851500
vt 0.107200 0.851500
vt 0.118200 0.818900
vt 0.514400 0.818900
vt 0.514400 0.794300
vt 0.118200 0.794300
vt 0.023600 0.602600
vt 0.023600 0.572800
vt 0.021600 0.568700
vt 0.021600 0.598800
vt 0.021600 0.840500
vt 0.023600 0.842900
vt 0.483900 0.572800
vt 0.483900 0.602600
vt 0.484700 0.598800
vt 0.484700 0.568700
vt 0.483900 0.842900
vt 0.484700 0.840500
vt 0.108500 0.821500
vt 0.530100 0.821500
vt 0.530100 0.588100
vt 0.108500 0.588100
vt 0.476500 0.606500
vt 0.476500 0.634900
vt 0.039800 0.634900
vt 0.039800 0.606500
vt 0.107200 0.589900
vt 0.532200 0.589900
vt 0.107200 0.825100
vt 0.532200 0.825100
vt 0.532200 0.851500
vt 0.107200 0.851500
vt 0.118200 0.818900
vt 0.514400 0.818900
vt 0.514400 0.794300
vt 0.118200 0.794300
vt 0.023600 0.602600
vt 0.023600 0.572800
vt 0.021600 0.568700
vt 0.021600 0.598800
vt 0.021600 0.840500
vt 0.023600 0.842900
vt 0.483900 0.572800
vt 0.483900 0.602600
vt 0.484700 0.598800
vt 0.484700 0.568700
vt 0.483900 0.842900
vt 0.484700 0.840500
vt 0.108500 0.821500
vt 0.530100 0.821500
vt 0.530100 0.588100
vt 0.108500 0.588100
vt 0.476500 0.606500
vt 0.476500 0.634900
vt 0.039800 0.634900
vt 0.039800 0.606500
vt 0.107200 0.589900
vt 0.532200 0.589900
vt 0.551200 0.325600
vt 0.926600 0.325600
vt 0.926600 0.298200
vt 0.551200 0.298200
vt 0.948500 0.350000
vt 0.534900 0.350000
vt 0.534900 0.319900
vt 0.948500 0.319900
vt 0.528300 0.405900
vt 0.528300 0.103000
vt 0.986900 0.103000
vt 0.986900 0.405900
vt 0.985000 0.403600
vt 0.985000 0.104700
vt 0.532600 0.104700
vt 0.532600 0.403600
vt 0.637100 0.740400
vt 0.637100 0.789300
vt 0.027200 0.789300
vt 0.027200 0.740400
vt 0.627000 0.780000
vt 0.627000 0.733700
vt 0.050200 0.733700
vt 0.050200 0.780000
vt 0.645200 0.940700
vt 0.645200 0.747300
vt 0.019800 0.747300
vt 0.019800 0.940700
vt 0.641400 0.941800
vt 0.641400 0.748400
vt 0.016000 0.748400
vt 0.016000 0.941800
vt 0.014500 0.946000
vt 0.014500 0.750200
vt 0.647500 0.750200
vt 0.647500 0.946000
vt 0.010800 0.939600
vt 0.010800 0.743900
vt 0.643800 0.743900
vt 0.643800 0.939600
vt 0.400400 0.694500
vt 0.608900 0.694500
vt 0.608900 0.734000
vt 0.400400 0.734000
vt 0.268300 0.727200
vt 0.059800 0.727200
vt 0.059800 0.687700
vt 0.268300 0.687700
vt 0.074100 0.716700
vt 0.275100 0.716700
vt 0.275100 0.678700
vt 0.074100 0.678700
vt 0.391200 0.723500
vt 0.592200 0.723500
vt 0.592200 0.685500
vt 0.391200 0.685500
vn -0.0000 -1.0000 -0.0000
vn 0.0000 1.0000 0.0000
vn -1.0000 0.0000 -0.0000
vn 0.0000 -0.0000 -1.0000
vn 1.0000 -0.0000 0.0000
vn -0.0000 0.0000 1.0000
usemtl Material.002
s 1
f 1/1/1 2/2/1 3/3/1 4/4/1
f 5/5/2 6/6/2 7/7/2 8/8/2
f 1/9/3 5/10/3 8/11/3 2/12/3
f 2/13/4 8/14/4 7/15/4 3/16/4
f 3/17/5 7/18/5 6/19/5 4/20/5
f 5/21/6 1/22/6 4/23/6 6/24/6
f 9/25/4 10/26/4 11/27/4 12/28/4
f 13/29/6 14/30/6 15/31/6 16/32/6
f 17/33/1 9/34/1 12/35/1 18/36/1
f 18/36/1 13/37/1 16/38/1 17/33/1
f 10/39/2 19/40/2 20/41/2 11/42/2
f 19/40/2 15/43/2 14/44/2 20/41/2
f 11/42/5 20/41/5 18/36/5 12/35/5
f 20/41/5 14/44/5 13/37/5 18/36/5
f 17/33/3 16/38/3 15/43/3 19/40/3
f 17/45/6 19/46/6 21/47/6 22/48/6
f 19/40/2 10/39/2 23/49/2 21/50/2
f 9/34/1 17/33/1 22/51/1 24/52/1
f 10/26/4 9/25/4 24/53/4 23/54/4
f 24/52/3 22/51/3 21/50/3 23/49/3
f 25/55/5 26/56/5 27/57/5 28/58/5
f 29/59/3 30/60/3 31/61/3 32/62/3
f 33/63/1 25/64/1 28/65/1 34/66/1
f 34/66/1 29/67/1 32/68/1 33/63/1
f 26/69/2 35/70/2 36/71/2 27/72/2
f 35/70/2 31/73/2 30/74/2 36/71/2
f 27/72/6 36/71/6 34/66/6 28/65/6
f 36/71/6 30/74/6 29/67/6 34/66/6
f 33/63/4 32/68/4 31/73/4 35/70/4
f 33/75/3 35/76/3 37/77/3 38/78/3
f 35/70/2 26/69/2 39/79/2 37/80/2
f 25/64/1 33/63/1 38/81/1 40/82/1
f 26/56/5 25/55/5 40/83/5 39/84/5
f 40/82/4 38/81/4 37/80/4 39/79/4
f 41/85/6 42/86/6 43/87/6 44/88/6
f 45/89/4 46/90/4 47/91/4 48/92/4
f 49/93/1 41/94/1 44/95/1 50/96/1
f 50/96/1 45/97/1 48/98/1 49/93/1
f 42/99/2 51/100/2 52/101/2 43/102/2
f 51/100/2 47/103/2 46/104/2 52/101/2
f 43/102/3 52/101/3 50/96/3 44/95/3
f 52/101/3 46/104/3 45/97/3 50/96/3
f 49/93/5 48/98/5 47/103/5 51/100/5
f 49/105/4 51/106/4 53/107/4 54/108/4
f 51/100/2 42/99/2 55/109/2 53/110/2
f 41/94/1 49/93/1 54/111/1 56/112/1
f 42/86/6 41/85/6 56/113/6 55/114/6
f 56/112/5 54/111/5 53/110/5 55/109/5
f 57/115/3 58/116/3 59/117/3 60/118/3
f 61/119/5 62/120/5 63/121/5 64/122/5
f 65/123/1 57/124/1 60/125/1 66/126/1
f 66/126/1 61/127/1 64/128/1 65/123/1
f 58/129/2 67/130/2 68/131/2 59/132/2
f 67/130/2 63/133/2 62/134/2 68/131/2
f 59/132/4 68/131/4 66/126/4 60/125/4
f 68/131/4 62/134/4 61/127/4 66/126/4
f 65/123/6 64/128/6 63/133/6 67/130/6
f 65/135/5 67/136/5 69/137/5 70/138/5
f 67/130/2 58/129/2 71/139/2 69/140/2
f 57/124/1 65/123/1 70/141/1 72/142/1
f 58/116/3 57/115/3 72/143/3 71/144/3
f 72/142/6 70/141/6 69/140/6 71/139/6
f 73/145/5 74/146/5 75/147/5 76/148/5
f 77/149/3 78/150/3 79/151/3 80/152/3
f 74/153/2 73/154/2 78/155/2 77/156/2
f 80/157/1 79/158/1 76/159/1 75/160/1
f 73/154/4 76/159/4 79/158/4 78/155/4
f 74/153/6 77/156/6 80/157/6 75/160/6
f 81/161/4 82/162/4 83/163/4 84/164/4
f 85/165/6 86/166/6 87/167/6 88/168/6
f 86/169/1 89/170/1 90/171/1 87/172/1
f 91/173/1 81/174/1 84/175/1 92/176/1
f 88/177/2 93/178/2 94/179/2 85/180/2
f 95/181/2 83/182/2 82/183/2 96/184/2
f 89/185/3 86/186/3 85/187/3 94/188/3
f 96/189/3 82/190/3 81/191/3 91/192/3
f 83/193/5 95/194/5 92/195/5 84/196/5
f 93/197/5 88/198/5 87/199/5 90/200/5
